<?xml version="1.0" standalone="no"?><!DOCTYPE svg PUBLIC "-//W3C//DTD SVG 1.1//EN" "http://www.w3.org/Graphics/SVG/1.1/DTD/svg11.dtd"><svg t="1546924912920" class="icon" style="" viewBox="0 0 1024 1024" version="1.1" xmlns="http://www.w3.org/2000/svg" p-id="7658" xmlns:xlink="http://www.w3.org/1999/xlink" width="200" height="200"><defs><style type="text/css"></style></defs><path d="M675.84 665.6m-281.6 0a281.6 281.6 0 1 0 563.2 0 281.6 281.6 0 1 0-563.2 0Z" fill="#5AC8FA" p-id="7659"></path><path d="M747.52 609.28c-35.84 92.16-128 158.72-235.52 158.72-143.36 0-256-112.64-256-256s112.64-256 256-256c81.92 0 158.72 40.96 204.8 102.4 0-15.36 10.24-25.6 25.6-25.6s25.6 10.24 25.6 25.6v153.6c0 56.32 46.08 102.4 102.4 102.4s102.4-46.08 102.4-102.4c0-256-204.8-460.8-460.8-460.8s-460.8 204.8-460.8 460.8 204.8 460.8 460.8 460.8c143.36 0 276.48-66.56 363.52-179.2 10.24-10.24 25.6-15.36 35.84-5.12 10.24 10.24 15.36 25.6 5.12 35.84C819.2 952.32 670.72 1024 512 1024 230.4 1024 0 793.6 0 512S230.4 0 512 0s512 230.4 512 512c0 87.04-66.56 153.6-153.6 153.6-51.2 0-92.16-20.48-122.88-56.32zM512 716.8c112.64 0 204.8-92.16 204.8-204.8s-92.16-204.8-204.8-204.8-204.8 92.16-204.8 204.8 92.16 204.8 204.8 204.8z" fill="" p-id="7660"></path></svg>