<?xml version="1.0" standalone="no"?><!DOCTYPE svg PUBLIC "-//W3C//DTD SVG 1.1//EN" "http://www.w3.org/Graphics/SVG/1.1/DTD/svg11.dtd"><svg t="1546924704393" class="icon" style="" viewBox="0 0 1024 1024" version="1.1" xmlns="http://www.w3.org/2000/svg" p-id="3136" xmlns:xlink="http://www.w3.org/1999/xlink" width="200" height="200"><defs><style type="text/css"></style></defs><path d="M168.96 527.36c-10.24-10.24-10.24-20.48 0-30.72l163.84-158.72c5.12-5.12 10.24-5.12 15.36-5.12 10.24 0 20.48 10.24 20.48 20.48v327.68c0 5.12 0 10.24-5.12 15.36-10.24 10.24-20.48 10.24-30.72 0l-163.84-168.96z" fill="#5AC8FA" p-id="3137"></path><path d="M0 512c0-5.12 0-15.36 5.12-20.48l327.68-327.68c10.24-10.24 25.6-10.24 35.84 0 10.24 10.24 10.24 25.6 0 35.84L87.04 486.4h911.36c15.36 0 25.6 10.24 25.6 25.6s-10.24 25.6-25.6 25.6H87.04L368.64 819.2c10.24 10.24 10.24 25.6 0 35.84-10.24 10.24-25.6 10.24-35.84 0L5.12 527.36S0 517.12 0 512z" fill="" p-id="3138"></path></svg>