<?xml version="1.0" standalone="no"?><!DOCTYPE svg PUBLIC "-//W3C//DTD SVG 1.1//EN" "http://www.w3.org/Graphics/SVG/1.1/DTD/svg11.dtd"><svg t="1546924720168" class="icon" style="" viewBox="0 0 1024 1024" version="1.1" xmlns="http://www.w3.org/2000/svg" p-id="3493" xmlns:xlink="http://www.w3.org/1999/xlink" width="200" height="200"><defs><style type="text/css"></style></defs><path d="M527.36 168.96l168.96 163.84c10.24 10.24 10.24 20.48 0 30.72-5.12 5.12-10.24 5.12-15.36 5.12H353.28c-10.24 0-20.48-10.24-20.48-20.48 0-5.12 0-10.24 5.12-15.36l158.72-163.84c10.24-10.24 20.48-10.24 30.72 0z" fill="#5AC8FA" p-id="3494"></path><path d="M512 0c5.12 0 15.36 0 20.48 5.12l327.68 327.68c10.24 10.24 10.24 25.6 0 35.84-10.24 10.24-25.6 10.24-35.84 0l-281.6-281.6v911.36c0 15.36-10.24 25.6-25.6 25.6s-25.6-10.24-25.6-25.6V87.04L204.8 368.64c-10.24 10.24-25.6 10.24-35.84 0-10.24-10.24-10.24-25.6 0-35.84L496.64 5.12s10.24-5.12 15.36-5.12z" fill="" p-id="3495"></path></svg>