<?xml version="1.0" standalone="no"?><!DOCTYPE svg PUBLIC "-//W3C//DTD SVG 1.1//EN" "http://www.w3.org/Graphics/SVG/1.1/DTD/svg11.dtd"><svg t="1546924709234" class="icon" style="" viewBox="0 0 1024 1024" version="1.1" xmlns="http://www.w3.org/2000/svg" p-id="3255" xmlns:xlink="http://www.w3.org/1999/xlink" width="200" height="200"><defs><style type="text/css"></style></defs><path d="M865.28 527.36l-163.84 168.96c-10.24 10.24-20.48 10.24-30.72 0-5.12-5.12-5.12-10.24-5.12-15.36V353.28c0-10.24 10.24-20.48 20.48-20.48 5.12 0 10.24 0 15.36 5.12l163.84 158.72c5.12 10.24 10.24 20.48 0 30.72z" fill="#5AC8FA" p-id="3256"></path><path d="M1024 512c0 5.12 0 15.36-5.12 20.48l-327.68 327.68c-10.24 10.24-25.6 10.24-35.84 0-10.24-10.24-10.24-25.6 0-35.84l281.6-281.6H25.6c-15.36-5.12-25.6-15.36-25.6-30.72s10.24-25.6 25.6-25.6h911.36L655.36 204.8c-10.24-10.24-10.24-25.6 0-35.84 10.24-10.24 25.6-10.24 35.84 0l327.68 327.68s5.12 10.24 5.12 15.36z" fill="" p-id="3257"></path></svg>