<?xml version="1.0" standalone="no"?><!DOCTYPE svg PUBLIC "-//W3C//DTD SVG 1.1//EN" "http://www.w3.org/Graphics/SVG/1.1/DTD/svg11.dtd"><svg t="1546924878381" class="icon" style="" viewBox="0 0 1024 1024" version="1.1" xmlns="http://www.w3.org/2000/svg" p-id="6706" xmlns:xlink="http://www.w3.org/1999/xlink" width="200" height="200"><defs><style type="text/css"></style></defs><path d="M107.52 599.04h117.76c46.08 0 87.04 25.6 107.52 66.56 10.24 20.48 35.84 35.84 61.44 35.84h240.64c25.6 0 46.08-15.36 61.44-35.84 20.48-40.96 61.44-66.56 107.52-66.56h112.64l-122.88-409.6c-10.24-20.48-25.6-35.84-51.2-35.84h-460.8c-25.6 0-40.96 15.36-51.2 35.84l-122.88 409.6z m-5.12 51.2V819.2c0 30.72 20.48 51.2 51.2 51.2h716.8c30.72 0 51.2-20.48 51.2-51.2v-168.96h-122.88c-25.6 0-46.08 15.36-61.44 35.84-20.48 40.96-61.44 66.56-107.52 66.56H389.12c-46.08 0-87.04-25.6-107.52-66.56-10.24-20.48-35.84-35.84-61.44-35.84H102.4zM281.6 102.4h460.8c46.08 0 87.04 30.72 97.28 71.68l122.88 409.6c5.12 20.48 10.24 40.96 10.24 56.32V819.2c0 56.32-46.08 102.4-102.4 102.4H153.6c-56.32 0-102.4-46.08-102.4-102.4v-174.08c0-20.48 5.12-40.96 10.24-56.32l122.88-409.6c10.24-46.08 51.2-76.8 97.28-76.8z" fill="" p-id="6707"></path><path d="M245.76 563.2h-15.36c-25.6-10.24-40.96-35.84-30.72-66.56l81.92-276.48c5.12-20.48 20.48-30.72 40.96-30.72h384c20.48 0 35.84 10.24 40.96 30.72l81.92 276.48v15.36c0 30.72-20.48 51.2-51.2 51.2H245.76z" fill="#5AC8FA" p-id="6708"></path></svg>