<?xml version="1.0" standalone="no"?><!DOCTYPE svg PUBLIC "-//W3C//DTD SVG 1.1//EN" "http://www.w3.org/Graphics/SVG/1.1/DTD/svg11.dtd"><svg t="1546924730303" class="icon" style="" viewBox="0 0 1024 1024" version="1.1" xmlns="http://www.w3.org/2000/svg" p-id="3612" xmlns:xlink="http://www.w3.org/1999/xlink" width="200" height="200"><defs><style type="text/css"></style></defs><path d="M890.88 768c-20.48-25.6-51.2-56.32-51.2-87.04v-148.48C839.68 435.2 768 358.4 680.96 358.4h-30.72C563.2 358.4 491.52 435.2 491.52 532.48v148.48c0 30.72-10.24 61.44-30.72 87.04h430.08z" fill="#5AC8FA" p-id="3613"></path><path d="M870.4 752.64c-30.72-40.96-51.2-92.16-51.2-143.36V368.64c0-153.6-128-281.6-281.6-281.6h-51.2C332.8 87.04 204.8 215.04 204.8 368.64v240.64c0 51.2-20.48 102.4-51.2 143.36h716.8zM486.4 35.84h51.2C721.92 35.84 870.4 184.32 870.4 368.64v240.64c0 56.32 30.72 112.64 76.8 143.36 15.36 10.24 15.36 25.6 10.24 40.96-5.12 10.24-15.36 10.24-25.6 10.24H92.16c-15.36 0-25.6-10.24-25.6-25.6 0-10.24 5.12-20.48 10.24-25.6 46.08-30.72 76.8-87.04 76.8-143.36V368.64C153.6 184.32 302.08 35.84 486.4 35.84zM343.04 865.28c-5.12-15.36 5.12-25.6 15.36-30.72 15.36-5.12 25.6 5.12 30.72 15.36 15.36 51.2 66.56 87.04 122.88 87.04 56.32 0 102.4-35.84 122.88-87.04 5.12-15.36 20.48-20.48 30.72-15.36s20.48 20.48 15.36 30.72c-25.6 71.68-92.16 122.88-168.96 122.88-76.8 0-148.48-51.2-168.96-122.88z" fill="" p-id="3614"></path></svg>