<?xml version="1.0" standalone="no"?><!DOCTYPE svg PUBLIC "-//W3C//DTD SVG 1.1//EN" "http://www.w3.org/Graphics/SVG/1.1/DTD/svg11.dtd"><svg t="1546924782286" class="icon" style="" viewBox="0 0 1024 1024" version="1.1" xmlns="http://www.w3.org/2000/svg" p-id="4445" xmlns:xlink="http://www.w3.org/1999/xlink" width="200" height="200"><defs><style type="text/css"></style></defs><path d="M460.8 460.8h460.8c56.32 0 102.4 46.08 102.4 102.4v204.8c0 56.32-46.08 102.4-102.4 102.4H460.8c-56.32 0-102.4-46.08-102.4-102.4v-204.8c0-56.32 46.08-102.4 102.4-102.4z" fill="#5AC8FA" p-id="4446"></path><path d="M51.2 358.4h921.6V256c0-30.72-20.48-51.2-51.2-51.2H102.4c-30.72 0-51.2 20.48-51.2 51.2v102.4z m0 51.2v358.4c0 30.72 20.48 51.2 51.2 51.2h819.2c30.72 0 51.2-20.48 51.2-51.2V409.6H51.2z m51.2-256h819.2c56.32 0 102.4 46.08 102.4 102.4v512c0 56.32-46.08 102.4-102.4 102.4H102.4c-56.32 0-102.4-46.08-102.4-102.4V256c0-56.32 46.08-102.4 102.4-102.4z m25.6 563.2h358.4c15.36 0 25.6 10.24 25.6 25.6s-10.24 25.6-25.6 25.6h-358.4c-15.36 0-25.6-10.24-25.6-25.6s10.24-25.6 25.6-25.6z m460.8 0h51.2c15.36 0 25.6 10.24 25.6 25.6s-10.24 25.6-25.6 25.6h-51.2c-15.36 0-25.6-10.24-25.6-25.6s10.24-25.6 25.6-25.6z" fill="" p-id="4447"></path></svg>