<?xml version="1.0" standalone="no"?><!DOCTYPE svg PUBLIC "-//W3C//DTD SVG 1.1//EN" "http://www.w3.org/Graphics/SVG/1.1/DTD/svg11.dtd"><svg t="1546924806373" class="icon" style="" viewBox="0 0 1024 1024" version="1.1" xmlns="http://www.w3.org/2000/svg" p-id="4921" xmlns:xlink="http://www.w3.org/1999/xlink" width="200" height="200"><defs><style type="text/css"></style></defs><path d="M640 307.2h153.6C865.28 307.2 921.6 363.52 921.6 435.2v409.6c0 71.68-56.32 128-128 128h-153.6c-71.68 0-128-56.32-128-128v-409.6C512 363.52 568.32 307.2 640 307.2z" fill="#5AC8FA" p-id="4922"></path><path d="M358.4 921.6V102.4H204.8c-30.72 0-51.2 20.48-51.2 51.2v716.8c0 30.72 20.48 51.2 51.2 51.2h153.6z m51.2 0h409.6c30.72 0 51.2-20.48 51.2-51.2V153.6c0-30.72-20.48-51.2-51.2-51.2H409.6v819.2zM204.8 51.2h614.4c56.32 0 102.4 46.08 102.4 102.4v716.8c0 56.32-46.08 102.4-102.4 102.4H204.8c-56.32 0-102.4-46.08-102.4-102.4V153.6c0-56.32 46.08-102.4 102.4-102.4z" fill="" p-id="4923"></path></svg>