<?xml version="1.0" standalone="no"?><!DOCTYPE svg PUBLIC "-//W3C//DTD SVG 1.1//EN" "http://www.w3.org/Graphics/SVG/1.1/DTD/svg11.dtd"><svg t="1546924788148" class="icon" style="" viewBox="0 0 1024 1024" version="1.1" xmlns="http://www.w3.org/2000/svg" p-id="4564" xmlns:xlink="http://www.w3.org/1999/xlink" width="200" height="200"><defs><style type="text/css"></style></defs><path d="M542.72 563.2m-153.6 0a153.6 153.6 0 1 0 307.2 0 153.6 153.6 0 1 0-307.2 0Z" fill="#5AC8FA" p-id="4565"></path><path d="M317.44 199.68C296.96 235.52 261.12 256 225.28 256H102.4c-30.72 0-51.2 20.48-51.2 51.2v512c0 30.72 20.48 51.2 51.2 51.2h819.2c30.72 0 51.2-20.48 51.2-51.2V307.2c0-30.72-20.48-51.2-51.2-51.2h-122.88c-40.96 0-76.8-20.48-92.16-56.32l-10.24-20.48c-5.12-15.36-20.48-25.6-35.84-25.6H363.52c-15.36 0-30.72 10.24-35.84 20.48l-10.24 25.6z m-46.08-25.6l10.24-20.48c15.36-30.72 46.08-51.2 81.92-51.2h296.96c35.84 0 66.56 20.48 81.92 51.2l10.24 20.48c10.24 20.48 25.6 30.72 46.08 30.72H921.6c56.32 0 102.4 46.08 102.4 102.4v512c0 56.32-46.08 102.4-102.4 102.4H102.4c-56.32 0-102.4-46.08-102.4-102.4V307.2c0-56.32 46.08-102.4 102.4-102.4h122.88c20.48 0 35.84-10.24 46.08-30.72zM512 742.4c-112.64 0-204.8-92.16-204.8-204.8s92.16-204.8 204.8-204.8 204.8 92.16 204.8 204.8-92.16 204.8-204.8 204.8z m0-51.2c87.04 0 153.6-66.56 153.6-153.6s-66.56-153.6-153.6-153.6-153.6 66.56-153.6 153.6 66.56 153.6 153.6 153.6z" fill="" p-id="4566"></path></svg>