<?xml version="1.0" standalone="no"?><!DOCTYPE svg PUBLIC "-//W3C//DTD SVG 1.1//EN" "http://www.w3.org/Graphics/SVG/1.1/DTD/svg11.dtd"><svg t="1546924829905" class="icon" style="" viewBox="0 0 1024 1024" version="1.1" xmlns="http://www.w3.org/2000/svg" p-id="5516" xmlns:xlink="http://www.w3.org/1999/xlink" width="200" height="200"><defs><style type="text/css"></style></defs><path d="M640 640m-332.8 0a332.8 332.8 0 1 0 665.6 0 332.8 332.8 0 1 0-665.6 0Z" fill="#5AC8FA" p-id="5517"></path><path d="M512 972.8c256 0 460.8-204.8 460.8-460.8s-204.8-460.8-460.8-460.8-460.8 204.8-460.8 460.8 204.8 460.8 460.8 460.8z m0 51.2C230.4 1024 0 793.6 0 512S230.4 0 512 0s512 230.4 512 512-230.4 512-512 512z m25.6-537.6h204.8c15.36 0 25.6 10.24 25.6 25.6s-10.24 25.6-25.6 25.6H512c-15.36 0-25.6-10.24-25.6-25.6V128c0-15.36 10.24-25.6 25.6-25.6s25.6 10.24 25.6 25.6v358.4z" fill="" p-id="5518"></path></svg>