<?xml version="1.0" standalone="no"?><!DOCTYPE svg PUBLIC "-//W3C//DTD SVG 1.1//EN" "http://www.w3.org/Graphics/SVG/1.1/DTD/svg11.dtd"><svg t="1546924898679" class="icon" style="" viewBox="0 0 1024 1024" version="1.1" xmlns="http://www.w3.org/2000/svg" p-id="7301" xmlns:xlink="http://www.w3.org/1999/xlink" width="200" height="200"><defs><style type="text/css"></style></defs><path d="M588.8 460.8C517.12 460.8 460.8 404.48 460.8 332.8v-204.8C460.8 56.32 517.12 0 588.8 0h204.8c61.44 0 117.76 46.08 128 107.52l30.72 204.8v20.48c0 71.68-56.32 128-128 128h-235.52z" fill="#5AC8FA" p-id="7302"></path><path d="M209.92 51.2H102.4c-25.6 0-51.2 25.6-51.2 51.2v312.32c0 30.72 25.6 51.2 51.2 51.2h102.4V51.2z m51.2 0v419.84c35.84 10.24 66.56 40.96 76.8 81.92L424.96 972.8l51.2-10.24c35.84-10.24 66.56-40.96 66.56-81.92v-204.8c0-56.32 46.08-102.4 102.4-102.4H921.6c30.72 0 51.2-25.6 51.2-51.2V512l-71.68-414.72c-5.12-25.6-25.6-40.96-51.2-40.96H261.12z m-25.6 465.92H102.4c-56.32 0-102.4-46.08-102.4-102.4V102.4C0 46.08 46.08 0 102.4 0h747.52c51.2 0 92.16 35.84 102.4 87.04L1024 501.76v15.36c0 56.32-46.08 102.4-102.4 102.4h-276.48c-30.72 0-51.2 25.6-51.2 51.2v204.8c0 61.44-40.96 117.76-102.4 133.12l-51.2 10.24c-30.72 5.12-56.32-10.24-61.44-40.96l-87.04-424.96c-10.24-15.36-30.72-35.84-56.32-35.84z" fill="" p-id="7303"></path></svg>