<?xml version="1.0" standalone="no"?><!DOCTYPE svg PUBLIC "-//W3C//DTD SVG 1.1//EN" "http://www.w3.org/Graphics/SVG/1.1/DTD/svg11.dtd"><svg t="1546924670096" class="icon" style="" viewBox="0 0 1024 1024" version="1.1" xmlns="http://www.w3.org/2000/svg" p-id="2779" xmlns:xlink="http://www.w3.org/1999/xlink" width="200" height="200"><defs><style type="text/css"></style></defs><path d="M217.6 315.73333333h245.33333333c53.97333333 0 98.13333333 44.16 98.13333334 98.13333334v490.66666666c0 53.97333333-44.16 98.13333333-98.13333334 98.13333334H217.6c-53.97333333 0-98.13333333-44.16-98.13333333-98.13333334V413.86666667c0-53.97333333 44.16-98.13333333 98.13333333-98.13333334z" fill="#5AC8FA" p-id="2780"></path><path d="M855.46666667 364.8h-196.26666667c-53.97333333 0-98.13333333-44.16-98.13333333-98.13333333V70.4H217.6c-29.44 0-49.06666667 19.62666667-49.06666667 49.06666667v785.06666666c0 29.44 19.62666667 49.06666667 49.06666667 49.06666667h588.8c29.44 0 49.06666667-19.62666667 49.06666667-49.06666667V364.8z m-19.62666667-49.06666667L610.13333333 90.02666667V266.66666667c0 29.44 19.62666667 49.06666667 49.06666667 49.06666666h176.64z m-264.96-294.4c24.53333333 0 49.06666667 9.81333333 68.69333333 29.44l235.52 235.52c19.62666667 19.62666667 29.44 44.16 29.44 68.69333334V904.53333333c0 53.97333333-44.16 98.13333333-98.13333333 98.13333334H217.6c-53.97333333 0-98.13333333-44.16-98.13333333-98.13333334V119.46666667c0-53.97333333 44.16-98.13333333 98.13333333-98.13333334h353.28z" fill="" p-id="2781"></path></svg>