<?xml version="1.0" standalone="no"?><!DOCTYPE svg PUBLIC "-//W3C//DTD SVG 1.1//EN" "http://www.w3.org/Graphics/SVG/1.1/DTD/svg11.dtd"><svg t="1546924699499" class="icon" style="" viewBox="0 0 1024 1024" version="1.1" xmlns="http://www.w3.org/2000/svg" p-id="3017" xmlns:xlink="http://www.w3.org/1999/xlink" width="200" height="200"><defs><style type="text/css"></style></defs><path d="M537.6 665.6c71.68 0 128-56.32 128-128S609.28 409.6 537.6 409.6 409.6 465.92 409.6 537.6 465.92 665.6 537.6 665.6z" fill="#5AC8FA" p-id="3018"></path><path d="M512 844.8c256 0 460.8-194.56 460.8-332.8s-204.8-332.8-460.8-332.8S51.2 373.76 51.2 512s204.8 332.8 460.8 332.8z m0 51.2c-332.8 0-512-266.24-512-384s179.2-384 512-384S1024 394.24 1024 512s-179.2 384-512 384z m0-204.8c-97.28 0-179.2-81.92-179.2-179.2S414.72 332.8 512 332.8s179.2 81.92 179.2 179.2-81.92 179.2-179.2 179.2z m0-51.2c71.68 0 128-56.32 128-128S583.68 384 512 384 384 440.32 384 512s56.32 128 128 128z" fill="" p-id="3019"></path></svg>