<?xml version="1.0" standalone="no"?><!DOCTYPE svg PUBLIC "-//W3C//DTD SVG 1.1//EN" "http://www.w3.org/Graphics/SVG/1.1/DTD/svg11.dtd"><svg t="1546924820696" class="icon" style="" viewBox="0 0 1024 1024" version="1.1" xmlns="http://www.w3.org/2000/svg" p-id="5278" xmlns:xlink="http://www.w3.org/1999/xlink" width="200" height="200"><defs><style type="text/css"></style></defs><path d="M317.44 332.8c-5.12-5.12-5.12-10.24-5.12-15.36 0-15.36 10.24-25.6 25.6-25.6h450.56c5.12 0 10.24 0 15.36 5.12 10.24 10.24 15.36 25.6 5.12 35.84L665.6 522.24c-15.36 20.48-25.6 51.2-25.6 76.8v363.52l-148.48-148.48c-5.12-5.12-5.12-10.24-5.12-20.48v-199.68c0-25.6-10.24-56.32-25.6-76.8L317.44 332.8z" fill="#5AC8FA" p-id="5279"></path><path d="M102.4 51.2c-5.12 0-10.24 0-15.36 5.12-10.24 10.24-10.24 25.6-5.12 35.84L409.6 522.24c15.36 20.48 25.6 51.2 25.6 76.8v199.68c0 5.12 5.12 15.36 5.12 20.48l148.48 148.48v-363.52c0-25.6 10.24-56.32 25.6-76.8l327.68-430.08c5.12-5.12 5.12-10.24 5.12-15.36 0-20.48-10.24-30.72-25.6-30.72H102.4z m0-51.2h819.2c40.96 0 76.8 35.84 76.8 76.8 0 15.36-5.12 30.72-15.36 46.08l-327.68 430.08c-10.24 15.36-15.36 30.72-15.36 46.08v363.52c0 30.72-20.48 51.2-51.2 51.2-15.36 0-25.6-5.12-35.84-15.36l-148.48-148.48c-15.36-15.36-20.48-35.84-20.48-56.32v-199.68c0-15.36-5.12-30.72-15.36-46.08L40.96 122.88C15.36 92.16 25.6 40.96 56.32 15.36c15.36-10.24 30.72-15.36 46.08-15.36z" fill="" p-id="5280"></path></svg>