<?xml version="1.0" standalone="no"?><!DOCTYPE svg PUBLIC "-//W3C//DTD SVG 1.1//EN" "http://www.w3.org/Graphics/SVG/1.1/DTD/svg11.dtd"><svg t="1546924936379" class="icon" style="" viewBox="0 0 1024 1024" version="1.1" xmlns="http://www.w3.org/2000/svg" p-id="8377" xmlns:xlink="http://www.w3.org/1999/xlink" width="200" height="200"><defs><style type="text/css"></style></defs><path d="M512 939.46311111c-229.26222222 0-415.744-186.48177778-415.744-415.744S282.73777778 107.86133333 512 107.86133333s415.744 186.48177778 415.744 415.744S741.26222222 939.46311111 512 939.46311111z m0-767.54488889c-193.99111111 0-351.80088889 157.80977778-351.80088889 351.80088889S318.00888889 875.52 512 875.52s351.80088889-157.80977778 351.80088889-351.80088889S705.99111111 171.91822222 512 171.91822222z" p-id="8378"></path><path d="M512 523.71911111m-271.81511111 0a271.81511111 271.81511111 0 1 0 543.63022222 0 271.81511111 271.81511111 0 1 0-543.63022222 0Z" fill="#5AC8FA" p-id="8379"></path></svg>