<?xml version="1.0" standalone="no"?><!DOCTYPE svg PUBLIC "-//W3C//DTD SVG 1.1//EN" "http://www.w3.org/Graphics/SVG/1.1/DTD/svg11.dtd"><svg t="1546924825777" class="icon" style="" viewBox="0 0 1024 1024" version="1.1" xmlns="http://www.w3.org/2000/svg" p-id="5397" xmlns:xlink="http://www.w3.org/1999/xlink" width="200" height="200"><defs><style type="text/css"></style></defs><path d="M460.8 1024h204.8v-409.6c0-30.72-20.48-51.2-51.2-51.2h-102.4c-30.72 0-51.2 20.48-51.2 51.2v409.6z" fill="#5AC8FA" p-id="5398"></path><path d="M358.4 972.8v-409.6c0-56.32 46.08-102.4 102.4-102.4h102.4c56.32 0 102.4 46.08 102.4 102.4v409.6h204.8c30.72 0 51.2-20.48 51.2-51.2V404.48c0-15.36-5.12-30.72-20.48-40.96l-358.4-302.08c-20.48-15.36-46.08-15.36-66.56 0l-358.4 302.08c-10.24 10.24-15.36 25.6-15.36 40.96V921.6c0 30.72 20.48 51.2 51.2 51.2h204.8zM87.04 327.68l358.4-302.08c35.84-30.72 92.16-30.72 133.12 0l358.4 302.08c20.48 20.48 35.84 46.08 35.84 76.8V921.6c0 56.32-46.08 102.4-102.4 102.4H153.6c-56.32 0-102.4-46.08-102.4-102.4V404.48c0-30.72 15.36-56.32 35.84-76.8zM409.6 972.8h204.8v-409.6c0-30.72-20.48-51.2-51.2-51.2H460.8c-30.72 0-51.2 20.48-51.2 51.2v409.6z" fill="" p-id="5399"></path></svg>