<?xml version="1.0" standalone="no"?><!DOCTYPE svg PUBLIC "-//W3C//DTD SVG 1.1//EN" "http://www.w3.org/Graphics/SVG/1.1/DTD/svg11.dtd"><svg t="1546924916441" class="icon" style="" viewBox="0 0 1024 1024" version="1.1" xmlns="http://www.w3.org/2000/svg" p-id="7777" xmlns:xlink="http://www.w3.org/1999/xlink" width="200" height="200"><defs><style type="text/css"></style></defs><path d="M588.346091 563.555233h235.338436c71.624742 0 127.901324 56.276583 127.901325 127.901324v20.464212l-30.696318 204.642119c-10.232106 61.392636-61.392636 107.437112-127.901324 107.437112h-204.642119C516.721349 1024 460.444767 967.723417 460.444767 896.098676v-204.642119c0-71.624742 56.276583-127.901324 127.901324-127.901324z" fill="#5AC8FA" p-id="7778"></path><path d="M209.758172 972.83947v-414.40029H102.321059c-30.696318 0-51.16053 25.580265-51.160529 51.16053V921.678941c0 30.696318 25.580265 51.16053 51.160529 51.160529h107.437113z m51.160529 0h588.346091c25.580265 0 46.044477-20.464212 51.16053-40.928423l71.624741-414.400291v-10.232105c0-30.696318-25.580265-51.16053-51.160529-51.16053h-276.26686c-56.276583 0-102.321059-46.044477-102.32106-102.321059v-204.642119c0-40.928424-25.580265-71.624742-66.508688-81.856847l-51.16053-15.348159-86.9729 424.632396c-10.232106 40.928424-35.812371 71.624742-76.740795 81.856847V972.83947z m-51.160529-465.560819h25.580264c25.580265 0 46.044477-15.348159 51.16053-40.928424L373.471866 41.717831c5.116053-25.580265 30.696318-46.044477 56.276583-40.928424l51.16053 10.232106c61.392636 15.348159 102.321059 71.624742 102.321059 133.017377v204.642119c0 30.696318 25.580265 51.16053 51.16053 51.160529H920.889534c56.276583 0 102.321059 46.044477 102.321059 102.32106v15.348158l-71.624741 414.400291c-10.232106 51.16053-51.16053 86.9729-102.32106 86.9729H102.321059c-56.276583 0-102.321059-46.044477-102.321059-102.321059v-312.079231c0-56.276583 46.044477-102.321059 102.321059-102.321059h107.437113z" fill="" p-id="7779"></path></svg>