<?xml version="1.0" standalone="no"?><!DOCTYPE svg PUBLIC "-//W3C//DTD SVG 1.1//EN" "http://www.w3.org/Graphics/SVG/1.1/DTD/svg11.dtd"><svg t="1546924891066" class="icon" style="" viewBox="0 0 1024 1024" version="1.1" xmlns="http://www.w3.org/2000/svg" p-id="7063" xmlns:xlink="http://www.w3.org/1999/xlink" width="200" height="200"><defs><style type="text/css"></style></defs><path d="M537.6 563.2c71.68 0 128-56.32 128-128S609.28 307.2 537.6 307.2 409.6 363.52 409.6 435.2 465.92 563.2 537.6 563.2z" fill="#5AC8FA" p-id="7064"></path><path d="M512 972.8c20.48 0 117.76-71.68 194.56-163.84 102.4-122.88 163.84-266.24 163.84-399.36 0-199.68-158.72-358.4-358.4-358.4S153.6 209.92 153.6 409.6c0 133.12 61.44 271.36 163.84 399.36C394.24 901.12 491.52 972.8 512 972.8z m0 51.2c-71.68 0-409.6-286.72-409.6-614.4 0-225.28 184.32-409.6 409.6-409.6s409.6 184.32 409.6 409.6c0 327.68-337.92 614.4-409.6 614.4z m0-435.2c-97.28 0-179.2-81.92-179.2-179.2S414.72 230.4 512 230.4s179.2 81.92 179.2 179.2-81.92 179.2-179.2 179.2z m0-51.2c71.68 0 128-56.32 128-128S583.68 281.6 512 281.6 384 337.92 384 409.6s56.32 128 128 128z" fill="" p-id="7065"></path></svg>