<?xml version="1.0" standalone="no"?><!DOCTYPE svg PUBLIC "-//W3C//DTD SVG 1.1//EN" "http://www.w3.org/Graphics/SVG/1.1/DTD/svg11.dtd"><svg t="1546924834409" class="icon" style="" viewBox="0 0 1024 1024" version="1.1" xmlns="http://www.w3.org/2000/svg" p-id="5635" xmlns:xlink="http://www.w3.org/1999/xlink" width="200" height="200"><defs><style type="text/css"></style></defs><path d="M460.8 512h358.4c56.32 0 102.4 46.08 102.4 102.4v307.2c0 56.32-46.08 102.4-102.4 102.4H460.8c-56.32 0-102.4-46.08-102.4-102.4v-307.2c0-56.32 46.08-102.4 102.4-102.4z" fill="#5AC8FA" p-id="5636"></path><path d="M819.2 358.4H204.8c-30.72 0-51.2 20.48-51.2 51.2v512c0 30.72 20.48 51.2 51.2 51.2h614.4c30.72 0 51.2-20.48 51.2-51.2V409.6c0-30.72-20.48-51.2-51.2-51.2zM307.2 307.2V204.8c0-112.64 92.16-204.8 204.8-204.8s204.8 92.16 204.8 204.8v102.4h102.4c56.32 0 102.4 46.08 102.4 102.4v512c0 56.32-46.08 102.4-102.4 102.4H204.8c-56.32 0-102.4-46.08-102.4-102.4V409.6c0-56.32 46.08-102.4 102.4-102.4h102.4z m51.2 0h307.2V204.8c0-87.04-66.56-153.6-153.6-153.6S358.4 117.76 358.4 204.8v102.4z" fill="" p-id="5637"></path></svg>