<?xml version="1.0" standalone="no"?><!DOCTYPE svg PUBLIC "-//W3C//DTD SVG 1.1//EN" "http://www.w3.org/Graphics/SVG/1.1/DTD/svg11.dtd"><svg t="1546924932503" class="icon" style="" viewBox="0 0 1024 1024" version="1.1" xmlns="http://www.w3.org/2000/svg" p-id="8255" xmlns:xlink="http://www.w3.org/1999/xlink" width="200" height="200"><defs><style type="text/css"></style></defs><path d="M508.8 955.84h-0.42666667c-14.50666667-0.10666667-28.16-6.50666667-37.54666666-17.49333333L320.32 762.24H147.2c-59.41333333 0-107.73333333-48.32-107.73333333-107.73333333v-426.66666667c0-59.41333333 48.32-107.73333333 107.73333333-107.73333333h729.6c59.41333333 0 107.73333333 48.32 107.73333333 107.73333333v426.56c0 59.41333333-48.32 107.73333333-107.73333333 107.73333333H703.25333333L546.13333333 939.09333333c-9.38666667 10.66666667-23.04 16.74666667-37.33333333 16.74666667zM147.2 192c-19.84 0-35.94666667 16.10666667-35.94666667 35.94666667v426.56c0 19.84 16.10666667 35.94666667 35.94666667 35.94666666h206.29333333l155.73333334 182.18666667 161.81333333-182.18666667h205.86666667c19.84 0 35.94666667-16.10666667 35.94666666-35.94666666v-426.66666667c0-19.84-16.10666667-35.94666667-35.94666666-35.94666667H147.2z" fill="#333333" p-id="8256"></path><path d="M205.4 266.9h613.2v345.9H205.4z" fill="#5AC8FA" p-id="8257"></path><path d="M351.2 439.9m-33.7 0a33.7 33.7 0 1 0 67.4 0 33.7 33.7 0 1 0-67.4 0Z" p-id="8258"></path><path d="M512 439.9m-33.7 0a33.7 33.7 0 1 0 67.4 0 33.7 33.7 0 1 0-67.4 0Z" p-id="8259"></path><path d="M672.7 439.9m-33.7 0a33.7 33.7 0 1 0 67.4 0 33.7 33.7 0 1 0-67.4 0Z" p-id="8260"></path></svg>