<?xml version="1.0" standalone="no"?><!DOCTYPE svg PUBLIC "-//W3C//DTD SVG 1.1//EN" "http://www.w3.org/Graphics/SVG/1.1/DTD/svg11.dtd"><svg t="1546924800654" class="icon" style="" viewBox="0 0 1024 1024" version="1.1" xmlns="http://www.w3.org/2000/svg" p-id="4802" xmlns:xlink="http://www.w3.org/1999/xlink" width="200" height="200"><defs><style type="text/css"></style></defs><path d="M128 855.04c0-20.48 10.24-35.84 25.6-46.08l225.28-128c25.6-15.36 56.32-15.36 81.92 0l107.52 71.68c46.08 30.72 102.4 25.6 148.48-5.12l256-194.56V870.4c0 30.72-71.68 102.4-102.4 102.4H204.8c-30.72 0-76.8-20.48-76.8-51.2v-66.56z" fill="#5AC8FA" p-id="4803"></path><path d="M102.4 721.92l256-143.36c40.96-20.48 92.16-20.48 133.12 5.12l107.52 71.68c25.6 15.36 61.44 15.36 87.04-5.12L921.6 471.04V153.6c0-30.72-20.48-51.2-51.2-51.2H153.6c-30.72 0-51.2 20.48-51.2 51.2v568.32z m0 61.44V870.4c0 30.72 20.48 51.2 51.2 51.2h716.8c30.72 0 51.2-20.48 51.2-51.2v-337.92l-204.8 158.72c-40.96 30.72-102.4 35.84-148.48 5.12L460.8 629.76c-25.6-15.36-56.32-15.36-76.8 0l-281.6 153.6zM153.6 51.2h716.8c56.32 0 102.4 46.08 102.4 102.4v716.8c0 56.32-46.08 102.4-102.4 102.4H153.6c-56.32 0-102.4-46.08-102.4-102.4V153.6c0-56.32 46.08-102.4 102.4-102.4z m153.6 384C235.52 435.2 179.2 378.88 179.2 307.2S235.52 179.2 307.2 179.2 435.2 235.52 435.2 307.2 378.88 435.2 307.2 435.2z m0-51.2c40.96 0 76.8-35.84 76.8-76.8S348.16 230.4 307.2 230.4 230.4 266.24 230.4 307.2 266.24 384 307.2 384z" fill="" p-id="4804"></path></svg>