<?xml version="1.0" standalone="no"?><!DOCTYPE svg PUBLIC "-//W3C//DTD SVG 1.1//EN" "http://www.w3.org/Graphics/SVG/1.1/DTD/svg11.dtd"><svg t="1546924748303" class="icon" style="" viewBox="0 0 1024 1024" version="1.1" xmlns="http://www.w3.org/2000/svg" p-id="3969" xmlns:xlink="http://www.w3.org/1999/xlink" width="200" height="200"><defs><style type="text/css"></style></defs><path d="M332.8 640m-230.4 0a230.4 230.4 0 1 0 460.8 0 230.4 230.4 0 1 0-460.8 0Z" fill="#5AC8FA" p-id="3970"></path><path d="M819.2 204.8c-81.92-81.92-189.44-128-307.2-128-240.64 0-435.2 194.56-435.2 435.2s194.56 435.2 435.2 435.2 435.2-194.56 435.2-435.2c0-46.08-10.24-97.28-20.48-138.24-5.12-15.36 0-30.72 15.36-35.84 10.24 0 25.6 5.12 30.72 20.48 15.36 51.2 25.6 102.4 25.6 153.6 0 266.24-220.16 486.4-486.4 486.4S25.6 778.24 25.6 512 245.76 25.6 512 25.6c133.12 0 250.88 51.2 343.04 143.36V25.6c0-15.36 10.24-25.6 25.6-25.6s25.6 10.24 25.6 25.6v204.8c0 15.36-10.24 25.6-25.6 25.6h-204.8c-15.36 0-25.6-10.24-25.6-25.6s10.24-25.6 25.6-25.6H819.2z" fill="" p-id="3971"></path></svg>