<?xml version="1.0" standalone="no"?><!DOCTYPE svg PUBLIC "-//W3C//DTD SVG 1.1//EN" "http://www.w3.org/Graphics/SVG/1.1/DTD/svg11.dtd"><svg t="1546924920656" class="icon" style="" viewBox="0 0 1024 1024" version="1.1" xmlns="http://www.w3.org/2000/svg" p-id="7896" xmlns:xlink="http://www.w3.org/1999/xlink" width="200" height="200"><defs><style type="text/css"></style></defs><path d="M196.49422222 343.95022222v-124.01777777c0-18.31822222 14.90488889-33.22311111 33.22311111-33.22311112h590.27911112c18.31822222 0 33.22311111 14.90488889 33.2231111 33.22311112v123.904h66.56V219.93244445c0-55.06844445-44.71466667-99.78311111-99.7831111-99.78311112H229.71733333c-55.06844445 0-99.78311111 44.71466667-99.78311111 99.78311112v123.904h66.56zM853.21955555 680.04977778v123.904c0 18.31822222-14.90488889 33.22311111-33.2231111 33.22311111H229.71733333c-18.31822222 0-33.22311111-14.90488889-33.22311111-33.22311111V680.04977778h-66.56v123.904c0 55.06844445 44.71466667 99.78311111 99.78311111 99.78311111h590.27911112c55.06844445 0 99.78311111-44.71466667 99.7831111-99.78311111V680.04977778h-66.56z" fill="#333333" p-id="7897"></path><path d="M691.8 745.8H354.9c-36.1 0-65.4-29.3-65.4-65.4V343.6c0-36.1 29.3-65.4 65.4-65.4h336.9c36.1 0 65.4 29.3 65.4 65.4v336.9c-0.1 36-29.3 65.3-65.4 65.3z" fill="#5AC8FA" p-id="7898"></path><path d="M92.36138667 543.16714667l0.31857778-66.56 864.59733333 4.14037333-0.31857778 66.56z" fill="#333333" p-id="7899"></path></svg>