<?xml version="1.0" standalone="no"?><!DOCTYPE svg PUBLIC "-//W3C//DTD SVG 1.1//EN" "http://www.w3.org/Graphics/SVG/1.1/DTD/svg11.dtd"><svg t="1546924735517" class="icon" style="" viewBox="0 0 1024 1024" version="1.1" xmlns="http://www.w3.org/2000/svg" p-id="3731" xmlns:xlink="http://www.w3.org/1999/xlink" width="200" height="200"><defs><style type="text/css"></style></defs><path d="M588.8 588.8m-281.6 0a281.6 281.6 0 1 0 563.2 0 281.6 281.6 0 1 0-563.2 0Z" fill="#5AC8FA" p-id="3732"></path><path d="M803.84 768l199.68 199.68c10.24 10.24 10.24 25.6 0 35.84-10.24 10.24-25.6 10.24-35.84 0L768 803.84c-81.92 71.68-189.44 117.76-307.2 117.76-256 0-460.8-204.8-460.8-460.8s204.8-460.8 460.8-460.8 460.8 204.8 460.8 460.8c0 117.76-46.08 225.28-117.76 307.2zM460.8 870.4c225.28 0 409.6-184.32 409.6-409.6s-184.32-409.6-409.6-409.6-409.6 184.32-409.6 409.6 184.32 409.6 409.6 409.6z" fill="" p-id="3733"></path></svg>