<?xml version="1.0" standalone="no"?><!DOCTYPE svg PUBLIC "-//W3C//DTD SVG 1.1//EN" "http://www.w3.org/Graphics/SVG/1.1/DTD/svg11.dtd"><svg t="1546915865633" class="icon" style="" viewBox="0 0 1024 1024" version="1.1" xmlns="http://www.w3.org/2000/svg" p-id="2875" xmlns:xlink="http://www.w3.org/1999/xlink" width="200" height="200"><defs><style type="text/css"></style></defs><path d="M460.8 358.4h358.4c56.32 0 102.4 46.08 102.4 102.4v460.8c0 56.32-46.08 102.4-102.4 102.4H460.8c-56.32 0-102.4-46.08-102.4-102.4V460.8c0-56.32 46.08-102.4 102.4-102.4z" fill="#5AC8FA" p-id="2876"></path><path d="M768 153.6h230.4c15.36 0 25.6 10.24 25.6 25.6s-10.24 25.6-25.6 25.6H921.6v716.8c0 56.32-46.08 102.4-102.4 102.4H204.8c-56.32 0-102.4-46.08-102.4-102.4V204.8H25.6C10.24 204.8 0 194.56 0 179.2S10.24 153.6 25.6 153.6H256V102.4c0-56.32 46.08-102.4 102.4-102.4h307.2c56.32 0 102.4 46.08 102.4 102.4v51.2z m-51.2 0V102.4c0-30.72-20.48-51.2-51.2-51.2H358.4c-30.72 0-51.2 20.48-51.2 51.2v51.2h409.6zM153.6 204.8v716.8c0 30.72 20.48 51.2 51.2 51.2h614.4c30.72 0 51.2-20.48 51.2-51.2V204.8H153.6z" fill="" p-id="2877"></path></svg>