<?xml version="1.0" standalone="no"?><!DOCTYPE svg PUBLIC "-//W3C//DTD SVG 1.1//EN" "http://www.w3.org/Graphics/SVG/1.1/DTD/svg11.dtd"><svg t="1546924939942" class="icon" style="" viewBox="0 0 1024 1024" version="1.1" xmlns="http://www.w3.org/2000/svg" p-id="8496" xmlns:xlink="http://www.w3.org/1999/xlink" width="200" height="200"><defs><style type="text/css"></style></defs><path d="M972.48 615.46666667c0-75.84-33.70666667-143.68-86.61333334-189.97333334-8.85333333-0.96-17.70666667-1.49333333-26.77333333-1.49333333-139.30666667 0.10666667-252.16 112.96-252.16 252.16 0 75.84 33.70666667 143.68 86.61333333 189.97333333 8.85333333 0.96 17.70666667 1.49333333 26.77333334 1.49333334 139.30666667 0 252.16-112.96 252.16-252.16z" fill="#5AC8FA" p-id="8497"></path><path d="M760.32 373.97333333C736 257.38666667 632.10666666 170.34666667 509.97333333 170.34666667c-122.13333333 0-226.24 87.25333333-250.45333333 204.05333333-131.2 10.77333333-234.66666667 121.06666667-234.66666667 255.04 0 126.50666667 90.56 231.04 211.73333333 251.94666667l240.53333334 1.81333333v116.8H550.4V883.94666667l204.16 1.6 36.69333333-4.05333334c121.06666667-20.90666667 211.52-125.44 211.52-251.84 0-136.64-107.62666667-248.64-242.45333333-255.68z m-7.04 437.86666667l-202.88 0.10666667v-174.93333334l57.49333333 57.49333334 51.84-51.84-144.74666667-144.74666667-147.2 147.30666667 51.84 51.84 57.49333334-57.49333334v172.48l-192.21333334 0.10666667-10.45333333-0.32C175.57333333 808.42666667 98.13333333 728.42666667 98.13333333 629.65333333c0-100.69333333 81.92-182.61333333 182.61333333-182.61333333l44.8 2.34666667 2.56-35.84c6.72-95.14666667 86.61333333-169.70666667 181.86666667-169.70666667 95.46666667 0 175.36 74.66666667 181.97333333 170.02666667l2.56 37.12 37.01333334-3.09333334c5.01333333-0.42666667 10.13333333-0.85333333 15.36-0.85333333 100.69333333 0 182.61333333 81.92 182.61333333 182.61333333-0.10666667 98.66666667-77.44 178.66666667-176.21333333 182.18666667z" p-id="8498"></path></svg>