<?xml version="1.0" standalone="no"?><!DOCTYPE svg PUBLIC "-//W3C//DTD SVG 1.1//EN" "http://www.w3.org/Graphics/SVG/1.1/DTD/svg11.dtd"><svg t="1546924849842" class="icon" style="" viewBox="0 0 1024 1024" version="1.1" xmlns="http://www.w3.org/2000/svg" p-id="6111" xmlns:xlink="http://www.w3.org/1999/xlink" width="200" height="200"><defs><style type="text/css"></style></defs><path d="M163.84 358.4c-30.72 0-51.2 20.48-51.2 51.2v358.4c0 30.72 20.48 51.2 51.2 51.2h122.88c25.6 0 56.32 5.12 76.8 20.48l81.92 30.72c5.12 5.12 10.24 5.12 15.36 5.12 20.48 0 35.84-15.36 35.84-35.84l25.6-537.6c0-5.12 0-10.24-5.12-15.36-10.24-15.36-30.72-20.48-46.08-10.24l-102.4 61.44c-25.6 15.36-51.2 20.48-81.92 20.48H163.84z" fill="#5AC8FA" p-id="6112"></path><path d="M112.64 256c-30.72 0-51.2 20.48-51.2 51.2v409.6c0 30.72 20.48 51.2 51.2 51.2h122.88c25.6 0 56.32 5.12 76.8 20.48l102.4 61.44c5.12 5.12 10.24 5.12 15.36 5.12 20.48 0 35.84-15.36 35.84-35.84V199.68c0-5.12 0-10.24-5.12-15.36-5.12-15.36-25.6-20.48-40.96-10.24l-102.4 61.44c-25.6 15.36-51.2 20.48-81.92 20.48H112.64z m122.88-51.2c20.48 0 35.84-5.12 51.2-15.36l102.4-61.44c46.08-25.6 97.28-10.24 122.88 30.72 10.24 15.36 10.24 30.72 10.24 46.08v624.64c0 46.08-35.84 87.04-87.04 87.04-15.36 0-30.72-5.12-40.96-10.24l-102.4-61.44c-15.36-20.48-35.84-25.6-56.32-25.6H112.64c-56.32 0-102.4-46.08-102.4-102.4V307.2c0-56.32 46.08-102.4 102.4-102.4h122.88zM665.6 721.92c-15.36 5.12-25.6 0-35.84-15.36-5.12-15.36 0-25.6 15.36-35.84 66.56-30.72 107.52-92.16 107.52-163.84 0-71.68-40.96-138.24-107.52-163.84-15.36-5.12-20.48-20.48-15.36-35.84 5.12-15.36 20.48-20.48 35.84-15.36 81.92 35.84 138.24 117.76 138.24 209.92 0 102.4-56.32 184.32-138.24 220.16z m81.92 189.44c-15.36 5.12-25.6 0-35.84-15.36-5.12-15.36 0-25.6 15.36-35.84 138.24-61.44 230.4-199.68 230.4-353.28 0-153.6-92.16-291.84-230.4-353.28-10.24 0-20.48-15.36-10.24-25.6 5.12-15.36 20.48-20.48 35.84-15.36 158.72 66.56 261.12 225.28 261.12 399.36a450.56 450.56 0 0 1-266.24 399.36z" fill="" p-id="6113"></path></svg>