<?xml version="1.0" standalone="no"?><!DOCTYPE svg PUBLIC "-//W3C//DTD SVG 1.1//EN" "http://www.w3.org/Graphics/SVG/1.1/DTD/svg11.dtd"><svg t="1546924761895" class="icon" style="" viewBox="0 0 1024 1024" version="1.1" xmlns="http://www.w3.org/2000/svg" p-id="4207" xmlns:xlink="http://www.w3.org/1999/xlink" width="200" height="200"><defs><style type="text/css"></style></defs><path d="M703.65866667 534.86933334c0-5.46133333-5.46133333-5.46133333-10.92266667-5.46133333-10.92266667-5.46133333-32.768-5.46133333-38.22933333 5.46133333l-218.45333333 327.68v16.384c0 16.384 10.92266667 27.30666667 27.30666666 27.30666667h436.90666667c5.46133333 0 10.92266667 0 16.384-5.46133334 10.92266667-5.46133333 16.384-21.84533333 10.92266667-38.22933333l-223.91466667-327.68z" fill="#5AC8FA" p-id="4208"></path><path d="M552.96 163.84l-15.36-15.36c-25.6-15.36-56.32-10.24-71.68 15.36L66.56 793.6c-5.12 10.24-10.24 15.36-10.24 25.6 0 30.72 20.48 51.2 51.2 51.2h803.84c10.24 0 20.48-5.12 25.6-10.24 25.6-15.36 30.72-46.08 15.36-71.68L552.96 163.84z m46.08-30.72l399.36 629.76c30.72 46.08 15.36 112.64-30.72 143.36-15.36 10.24-35.84 15.36-56.32 15.36H112.64c-56.32 0-102.4-46.08-102.4-102.4 0-20.48 5.12-40.96 15.36-56.32L424.96 133.12c30.72-46.08 92.16-61.44 143.36-30.72l30.72 30.72zM512 281.6c15.36 0 25.6 10.24 25.6 25.6v358.4c0 15.36-10.24 25.6-25.6 25.6s-25.6-10.24-25.6-25.6V307.2c0-15.36 10.24-25.6 25.6-25.6z m0 460.8c15.36 0 25.6 10.24 25.6 25.6s-10.24 25.6-25.6 25.6-25.6-10.24-25.6-25.6 10.24-25.6 25.6-25.6z" fill="" p-id="4209"></path></svg>